<svg xmlns="http://www.w3.org/2000/svg" version="1.1" xmlns:xlink="http://www.w3.org/1999/xlink" xmlns:svgjs="http://svgjs.com/svgjs" width="1440" height="560" preserveAspectRatio="none" viewBox="0 0 1440 560"><g mask="url(&quot;#SvgjsMask1188&quot;)" fill="none"><rect width="1440" height="560" x="0" y="0" fill="url(#SvgjsLinearGradient1189)"></rect><path d="M269.11555089683793 547.0173311676313L146.81091856243756 440.69953630584735 40.493123700653655 563.0041686402477 162.797756035054 669.3219635020316z" fill="rgba(219, 228, 222, 0.08)" class="triangle-float1"></path><path d="M1101.99 27.65 a103.55 103.55 0 1 0 207.1 0 a103.55 103.55 0 1 0 -207.1 0z" fill="rgba(219, 228, 222, 0.08)" class="triangle-float1"></path><path d="M1349.6621684238917 213.69875980220354L1388.504253830862 106.98100722202501 1281.7865012506834 68.13892181505483 1242.9444158437132 174.85667439523337z" fill="rgba(219, 228, 222, 0.08)" class="triangle-float2"></path><path d="M1155.55 332.14 a126.92 126.92 0 1 0 253.84 0 a126.92 126.92 0 1 0 -253.84 0z" fill="rgba(219, 228, 222, 0.08)" class="triangle-float2"></path><path d="M225.68861494331807 86.3438384598533L329.56139990930626 97.26130808861949 340.47886953807244-6.611476877368688 236.60608457208426-17.528946506134872z" fill="rgba(219, 228, 222, 0.08)" class="triangle-float1"></path><path d="M225.33 187.39 a143.31 143.31 0 1 0 286.62 0 a143.31 143.31 0 1 0 -286.62 0z" fill="rgba(219, 228, 222, 0.08)" class="triangle-float3"></path></g><defs><mask id="SvgjsMask1188"><rect width="1440" height="560" fill="#ffffff"></rect></mask><linearGradient x1="50%" y1="0%" x2="50%" y2="100%" gradientUnits="userSpaceOnUse" id="SvgjsLinearGradient1189"><stop stop-color="rgba(147, 23, 59, 1)" offset="0"></stop><stop stop-color="rgba(45, 9, 20, 1)" offset="1"></stop></linearGradient></defs></svg>